<?xml version="1.0" encoding="UTF-8" standalone="no"?>
<svg
   version="1.0"
   width="842.7"
   height="832"
   viewBox="0 0 632 624"
   id="svg6"
   sodipodi:docname="montecito.svg"
   inkscape:version="1.3.2 (091e20ef0f, 2023-11-25, custom)"
   xmlns:inkscape="http://www.inkscape.org/namespaces/inkscape"
   xmlns:sodipodi="http://sodipodi.sourceforge.net/DTD/sodipodi-0.dtd"
   xmlns:xlink="http://www.w3.org/1999/xlink"
   xmlns="http://www.w3.org/2000/svg"
   xmlns:svg="http://www.w3.org/2000/svg">
  <defs
     id="defs6">
    <linearGradient
       id="linearGradient170"
       inkscape:collect="always">
      <stop
         style="stop-color:#fea900;stop-opacity:1;"
         offset="0"
         id="stop170" />
      <stop
         style="stop-color:#ffee00;stop-opacity:1;"
         offset="1"
         id="stop171" />
    </linearGradient>
    <radialGradient
       inkscape:collect="always"
       xlink:href="#linearGradient170"
       id="radialGradient171"
       cx="154.95284"
       cy="314.07855"
       fx="154.95284"
       fy="314.07855"
       r="118.54735"
       gradientTransform="matrix(1.3741726,-0.02201016,0.03554019,2.2189008,-69.141521,-379.42007)"
       gradientUnits="userSpaceOnUse" />
  </defs>
  <sodipodi:namedview
     id="namedview6"
     pagecolor="#ffffff"
     bordercolor="#000000"
     borderopacity="0.25"
     inkscape:showpageshadow="2"
     inkscape:pageopacity="0.0"
     inkscape:pagecheckerboard="0"
     inkscape:deskcolor="#d1d1d1"
     inkscape:zoom="0.55004535"
     inkscape:cx="479.05141"
     inkscape:cy="275.43184"
     inkscape:window-width="1504"
     inkscape:window-height="931"
     inkscape:window-x="0"
     inkscape:window-y="0"
     inkscape:window-maximized="1"
     inkscape:current-layer="svg6" />
  <ellipse
     style="fill:#ffffff;stroke-width:0.75;fill-opacity:1"
     id="path1"
     ry="312"
     rx="316"
     cy="312"
     cx="316" />
  <path
     id="path111"
     style="fill:#000000"
     d="M 276.00068 367.00049 L 264.00068 367.99951 C 264.00068 370.99951 275.0007 378.99953 282.00068 382.99951 C 289.00066 385.99951 288.00017 387.99951 281.00019 385.99951 C 275.00021 384.99951 273.99972 385.99953 279.9997 394.99951 L 285.9997 406.00049 C 290.9997 417.00047 293.0007 418 306.00068 417 L 315.00068 417 L 315.00068 399 C 312.00068 399 295.00019 392 293.00019 390 L 291.00068 388.00049 L 315.00068 388.00049 L 315.00068 379.00049 C 315.00068 376.00049 314.9997 374.99951 312.9997 373.99951 C 308.99972 371.99951 289.00066 368.00049 276.00068 367.00049 z "
     inkscape:label="lip" />
  <g
     id="g89"
     inkscape:label="sun">
    <path
       style="display:inline;fill:#000000"
       d="M 310.64863,11.39209 C 310.17207,11.515137 309.62568,11.75 309.00068,12 l -1.00049,4.000488 -1.00049,9 -3,15.999024 C 297.99971,76.999476 298.00068,75 297.00068,75 L 291.9997,67.000488 281.00019,49.999512 C 275.08302,43.167618 270.35147,35.394039 267.00068,27 c -2,-4.999995 -3.00098,-7.000488 -5.00098,-7.000488 -1,0 -1.99951,9.81e-4 -1.99951,5.000976 -2,14.999985 -2.00049,25.000002 -1.00049,27 1,2.999997 1.00049,5.999529 -1.99951,22.999512 l -7.99951,24 -1.00049,-7.999512 C 246.00019,77.000502 233.99969,56.999991 222.9997,48 c -4.99999,-3.999996 -13.99903,-6.999513 -21.99902,-7.999512 -8.99999,0 -12,3e-6 -12,3 0,1.999998 -4.9e-4,2.999511 1.99951,1.999512 3,0 7.00001,2.000493 12,7.000488 5,5.999994 6.99952,10.999035 10.99951,21.999024 3,12.999987 3,23.000496 0,31.000488 l -3,6 -3.99902,-4.00049 -22.00049,-17.999998 c -6.99999,-4.999995 -11,-7.999521 -15,-16.999512 -3,-6.999993 -2.99951,-6.999516 -1.99951,-10.999512 3,-7.999992 -1.0005,-7.000968 -10.00049,0.999024 -6.99999,5.999994 -9,11.00001 -12,21 -2,8.999991 -2,11.000988 0,23.000978 3,12.99999 6.00049,21.99952 10.00049,28.99951 l 3,7.00049 -9,-5.00098 C 129.0007,121.99953 107.9997,108 105.9997,108 c -2,0 -2,4.9e-4 0,4.00049 l 6,15.99902 c -1,1 -4.00001,2.00098 -11.999998,2.00098 L 86.000191,132 c -3.999996,2 -19.000489,14.00049 -19.000489,16.00049 l 4.000489,0.99902 c 4.999995,0 17.999519,4.00098 25.999511,8.00098 8.999988,3.99999 26.000978,24 23.000978,27 l -14.00098,0.99902 c -11.999986,-1 -13.999515,-1 -19.999509,-3 C 78.000199,177.99952 72.000673,173.99999 66.000679,168 c -1.999998,-3 -5.000001,-4.99951 -6,-4.99951 -1.999998,0 -5.000001,5.99951 -6,10.99951 0,6.99999 1.000005,13.00001 6,24 l 3.999023,7.99951 -6,1.00049 c -10.999989,1 -21.999515,8.0005 -25.999511,16.00049 L 27.999702,237 l 10.000489,3 c 8.999991,1 15.999515,3 19.999511,6 0.999999,2 1.00048,1.99951 -7.999511,1.99951 -8.999991,0 -10.999515,9.8e-4 -13.999512,2.00098 -11.999988,6.99999 -17.000977,17.00001 -17.000977,33 0,5.99999 1.000495,6 7.000489,3 3.999996,-2 6.000495,-2.00098 13.000488,-2.00098 6.999993,-1 7.999521,9.8e-4 16.999512,5.00098 l 15,6 c 5.999994,2 5.999994,3.99902 0,3.99902 -17.686963,3.68079 -35.070477,8.69512 -52.000489,15 l 2.000977,2.00098 10.999512,3 37.000488,6.99902 c 6.999993,1 12.999999,3.00049 12,4.00049 l -9,4.00049 C 44.000707,344.00048 30.999699,356.00002 27.999702,375 c -1.999998,6.99999 -1.999022,8.99952 -0.999023,13.99951 l 1.999512,6 c 0.999999,1 3.000492,-1 7.000488,-3 2.999997,-3 8.000004,-6.99951 12,-7.99951 5.999994,-4 20.999514,-9 22.999512,-9 1.999998,0 0.999996,3 -3,6 -4.999995,4 -11.000007,11.00001 -18,24 l -9,13.99951 -1.999512,4.00049 24.999023,1.99951 c 8.999991,-1 15.000499,-3 25.000489,-9 3.999996,-3 7.000488,-4 7.000488,-3 1.999998,2 -2.000004,13.0005 -6,19.00049 -7.999992,9.99999 -16.000017,13.00049 -33,13.00049 h -7.000488 c 0,3 5.000493,10 10.000488,15 C 66.000673,467.00048 69.000202,468 80.000191,468 l 7.000488,1.00049 -2.000977,9.99902 c -1.999998,7.99999 -1.999022,10.00001 -0.999023,15 0,3 2.000001,6.00049 3,7.00049 1.999998,2 1.999025,2 3.999023,0 6.999993,-5 30.000978,-15.99951 32.000978,-13.99951 l -1.00049,3 L 108.00068,516 c -3,5 -3,7.99951 0,7.99951 l 13.99951,-9 13.99951,-9 L 134.00019,510 c -4,6.99999 -5,20.99952 -3,28.99951 l 10.00049,14.00098 3.99902,-3 c 7,-7.99999 14.0005,-16 19.00049,-18 L 180.00068,525 l 15,-7.00049 4.99951,-1.99951 1.00049,7.00049 c 1,7.99999 -2.00049,24.00001 -7.00049,33 -3,5.99999 -10.00049,13.99951 -13.00049,16.99951 -2,0 -1.99951,0.99951 -1.99951,1.99951 2,2 16.00049,8.00098 19.00049,8.00098 l 10.99951,-3 c 8.99999,-4 18.00001,-12.00001 24,-21 4,-6.99999 5.99951,-8 4.99951,-3 -2.99999,12.99999 -1.99902,25.99903 2.00098,33.99902 C 246.00067,598.9995 255.99971,605 267.9997,606 h 9 l 3,-1.00049 L 287.00019,603 c 6.99999,0 6.00048,-1.99951 -1.99951,-4.99951 -6.99999,-2 -8.00049,-3.00098 -10.00049,-8.00098 -3,-4.99999 -3,-6.00001 -3,-15 0,-11.99999 1.99952,-16.99952 10.99951,-28.99951 3,-5 7.00049,-8.99951 7.00049,-10.99951 3,-3 3.99951,10e-6 4.99951,9 l 3,16.99951 3,13.99951 1.00049,9 1.99951,8.00098 3,13.99951 c 1,5 2.00049,6 4.00049,6 2,-1 2,-1.0005 3,-13.00049 1.22703,-42.98945 1.89327,-85.99318 1.99951,-129 l -0.99902,-18.99902 c 0,2 -10e-6,1.99902 -9,0.99902 -41.74962,-0.77264 -80.83076,-20.68165 -106.00049,-54 -18.23378,-25.71962 -28.01935,-56.47174 -28.00049,-87.99902 1,-22.99998 7.0005,-44.00002 19.00049,-66 23.81979,-39.28966 65.17778,-64.62706 111,-68.00098 l 10.00049,-0.99902 0.99902,-117.000002 c 0.875,-42.874957 0.98486,-47.469725 -2.35107,-46.608398 z"
       id="path108" />
    <path
       style="fill:#ffee00;fill-opacity:1"
       d="m 288.00068,457.00049 15.99902,0.99902 C 306.8312,491.261 307.16596,524.68853 305.00019,558 L 303.00068,547.00049 300.9997,537 l -1.99951,-10.99951 -3,-15 c -2.19235,-18.06706 -4.85945,-36.07334 -7.99951,-54 z"
       id="path85"
       inkscape:label="36" />
    <path
       style="fill:#ffee00;fill-opacity:1"
       d="m 282.00068,475.99951 3,15 c 4.99999,25.99998 4.99902,29.00001 3.99902,33 -1,4 -2.99952,7.00001 -10.99951,18 -8.99999,11.99999 -12.00049,17.00099 -13.00049,26.00098 -1,7.99999 4.9e-4,16.00001 4.00049,24 l 3,7.99951 c -2,1 -6,-2.99952 -9,-7.99951 -5.99999,-10.99999 -7.00049,-17.00099 -7.00049,-32.00098 0,-17.99998 9.9e-4,-19.99953 11.00098,-43.99951 5.75003,-13.0399 10.75804,-26.39506 15,-40.00049 z"
       id="path88"
       inkscape:label="35" />
    <path
       style="fill:#ffee00;fill-opacity:1"
       d="M 278.00019,457.00049 279.00068,462 c 0,7.99999 -10.00099,37.00052 -23.00098,64.00049 -4.99999,9.99999 -5.99902,15.99903 -6.99902,27.99902 -1,10.99999 1,24.00001 3,30 l 4.99951,9 4.00049,7.00049 -12,-7.99951 c -5.99999,-6.99999 -6.00098,-5.00004 -5.00098,-45 0,-36.99996 9.8e-4,-39.00099 5.00098,-53.00098 L 254.00019,483 c 5,-9.99999 20,-25.99951 24,-25.99951 z"
       id="path84"
       inkscape:label="34" />
    <path
       style="fill:#ffee00;fill-opacity:1"
       d="m 189.18818,481.69043 c 0.44433,-0.0581 0.93701,0.43457 1.81201,1.30957 l 1.00049,3 3,10.99951 c 2,6.99999 1.99902,9.00098 0.99902,11.00098 -2,3.99999 -7.99903,7.99951 -15.99902,10.99951 -17.99998,5 -25.00001,9.99952 -33,19.99951 l -6,6 c -2,-2 -1.00098,-9.99951 0.99902,-13.99951 3,-5.99999 7.00099,-10.00001 17.00098,-18 l 12.99902,-10.00049 15,-18 c 1.125,-2.25 1.61719,-3.23437 2.18848,-3.30908 z"
       id="path89"
       inkscape:label="31" />
    <path
       style="fill:#ffee00;fill-opacity:1"
       d="m 184.25751,472.03857 c 0.50415,0.0476 0.36719,0.71143 -0.25781,1.96143 -2.99999,10.99999 -14.99952,24.99952 -28.99951,34.99951 -7.99999,5 -12,10.0005 -15,16.00049 -2,3 -2.99951,3.99951 -4.99951,1.99951 -1,-2 2.99903,-12 6.99902,-18 6,-8.99999 14.0005,-16.99903 28.00049,-27.99902 8.93749,-6.1875 13.1482,-9.06665 14.25732,-8.96192 z"
       id="path87"
       inkscape:label="30" />
    <path
       style="fill:#ffee00;fill-opacity:1"
       d="m 192.9997,439.99951 c -2.29049,7.58792 -4.29194,15.26112 -6,23.00098 -13.27447,9.89501 -26.95238,19.23538 -40.99951,27.99902 -9.99999,7.99999 -13.99951,11 -13.99951,9 19.7078,-20.62613 40.04998,-40.6358 60.99902,-60 z"
       id="path81"
       inkscape:label="29" />
    <path
       style="fill:#ffee00;fill-opacity:1"
       d="m 198.00068,420 0.99902,1.00049 -25.99951,27 -34.99951,36.99902 c -14.99999,15.99999 -12.00047,8.00096 4.99951,-12.99902 l 9,-13.00049 18,-28.00049 C 176.00018,424.99952 183.00069,422 198.00068,420 Z"
       id="path79"
       inkscape:label="28" />
    <path
       style="fill:#ffee00;fill-opacity:1"
       d="m 152.00019,445.99951 c 0,1 -20.99951,31.00098 -22.99951,32.00098 l -10.00049,3.99902 -16.00049,6 c -11.999986,6 -11.999986,4.00097 0,-6.99902 15.07904,-13.32973 31.50079,-25.06018 49.00049,-35.00098 z"
       id="path83"
       inkscape:label="27" />
    <path
       style="fill:#ffee00;fill-opacity:1"
       d="m 119.00019,459 v 1.00049 l -6,6 c -4,2 -10,7.99903 -14.999999,12.99902 -9.99999,8.99999 -10.000486,9.00048 -7.000489,-1.99951 1.999998,-5.99999 2.000004,-7 6,-9 z"
       id="path86"
       inkscape:label="26" />
    <path
       style="fill:#ffee00;fill-opacity:1"
       d="m 102.9997,385.99951 1.00049,3 c -1,5 -5.999516,13.00001 -10.999511,18 -6.999993,5 -22.000008,12.00049 -30,13.00049 -11.999988,2 -12.000967,4.8e-4 -2.000977,-4.99951 l 24,-16.00049 z"
       id="path78"
       inkscape:label="23" />
    <path
       style="fill:#ffee00;fill-opacity:1"
       d="m 88.402534,377.92969 c 2.453611,-0.0432 4.973148,0.3208 7.598145,1.0708 4.999991,1 4.999021,2.99902 0.999023,3.99902 l -7.999511,5.00098 c -9.99999,8.99999 -39,27.99951 -39,25.99951 l 7.000488,-10.99951 c 11.374989,-17.06248 20.769542,-24.88355 31.401855,-25.0708 z"
       id="path76"
       inkscape:label="22" />
    <path
       style="fill:#ffee00;fill-opacity:1"
       d="m 149.00019,340.00049 h 3 L 141.00068,348 120.9997,364.00049 c -9.99999,9.99999 -14.99903,11.99902 -21.999021,9.99902 l -15,-3 c -13.999986,-2 -24.000504,1e-5 -40.000488,9 -12.999987,6 -13.999506,5.00048 -7.999512,-1.99951 7.999992,-8.99999 18.999525,-15.99952 31.999512,-19.99951 l 25.000488,-3 c 20.999981,-1 30.999521,-3.00099 43.999511,-11.00098 z"
       id="path74"
       inkscape:label="21" />
    <path
       style="fill:#ffee00;fill-opacity:1"
       d="M 95.972847,331.85742 C 99.468937,331.75 104.62471,332.375 108.9997,333 l 16.00049,3 c 6.99999,0 12.99951,2 10.99951,3 l -18.99902,7.99951 c -5.99999,2 -17.00001,4.00049 -27.000001,4.00049 -23.999976,0 -35.000013,2.99952 -48,13.99951 l -9,7.00049 c -2.999997,0 6.000006,-13.00049 12,-19.00049 7.999992,-5.99999 28.999527,-15.99902 43.999512,-18.99902 l 3,-1.00049 c 0.374999,-0.75 1.875002,-1.07813 3.972656,-1.14258 z"
       id="path73"
       inkscape:label="20" />
    <path
       style="fill:#ffee00;fill-opacity:1"
       d="m 110.00019,315 54,1.00049 1.00049,10.99951 0.99902,9 -6.99902,-1.00049 C 135.13376,332.76881 111.42271,329.09591 87.999702,324 c -10.918292,-2.70311 -21.924551,-5.03826 -33,-7.00049 C 51.999705,314.99951 61.00024,315 110.00019,315 Z"
       id="path72"
       inkscape:label="19" />
    <path
       style="fill:#ffee00;fill-opacity:1"
       d="m 165.00068,289.00049 v 9 c 0,6.99999 -1.00098,9.99951 -2.00098,10.99951 h -51 l -50.999994,-1.00049 c -0.999999,-1 8.000497,-2.99951 16.000489,-4.99951 14.451665,-1.03333 28.817955,-3.03785 43.000485,-6 15.15507,-1.70545 30.18572,-4.37708 45,-7.99951 z"
       id="path71"
       inkscape:label="18" />
    <path
       style="fill:#ffee00;fill-opacity:1"
       d="m 47.209667,267.9624 c 5.556635,0.0684 12.04102,1.16309 15.791016,3.03809 l 12.999023,6.99902 c 11.999988,6.99999 17.000497,9.00098 25.000484,11.00098 9.99999,2 8.99999,3.99902 -5.999995,6.99902 -5.999994,1 -19.999533,-3.99952 -40.999512,-13.99951 -10.999989,-5 -14.000007,-6.00049 -21,-4.00049 l -6,1.00049 c -0.999999,-2 5.000007,-7.00049 12,-10.00049 1.874998,-0.75 4.875003,-1.07812 8.208984,-1.03711 z"
       id="path69"
       inkscape:label="17" />
    <path
       style="fill:#ffee00;fill-opacity:1"
       d="m 47.222847,253.09863 c 3.933102,-0.0134 8.464361,0.65137 13.776855,1.90137 8.999991,1 14.000989,4.0005 26.000977,13.00049 8.999991,6.99999 19.999521,13 28.999511,15 5.99999,3 6.99951,3.99902 1.99951,3.99902 -7.99999,0 -20.99952,-3.99903 -31.999509,-9.99902 -25.999974,-12.99999 -26.000497,-13.00098 -34.000489,-14.00098 -8.999991,0 -15.999029,1.00001 -21.999023,6 l -6,3 c -0.999999,0 -9.73e-4,-2.99951 3.999023,-7.99951 4.812496,-7.56249 10.570322,-10.87183 19.223145,-10.90137 z"
       id="path68"
       inkscape:label="16" />
    <path
       style="fill:#ffee00;fill-opacity:1"
       d="M 60.390327,211.84424 C 62.7497,211.87549 64.999704,212.25 66.999702,213 l 9,7.00049 10.000489,9 c 4.999995,2 6.999524,2 19.999509,3 19.99998,1 31.00099,4.00001 41.00098,12 4,3.99999 7.99952,8.99952 13.99951,19.99951 l 4.99951,9 c 1,2 1.00098,3 -0.99902,3 -3,1 -31.00099,-8.00049 -41.00098,-13.00049 -9.99999,-4.99999 -14.00001,-7.00001 -26.999998,-18 l -18,-13.99951 c -14.999985,-7.99999 -28.999523,-9.99951 -40.999511,-4.99951 -2.999997,2 -2.000485,-2.00001 1.999511,-6 5.249995,-5.25 13.312508,-8.25 20.390625,-8.15625 z"
       id="path66"
       inkscape:label="14" />
    <path
       style="fill:#ffee00;fill-opacity:1"
       d="m 83.444038,143.34959 c 2.119139,-0.0684 5.555669,0.40088 10.555664,1.65088 13.999988,3 30.000498,10.99952 40.000488,19.99951 5.99999,5.99999 14.99951,18.00049 13.99951,19.00049 L 128.00019,183 l -6,-7.00049 C 118.00019,167.99952 106.9997,156 99.999702,153 L 89.000191,148.00049 81.000679,144 c 0.375,-0.375 1.171876,-0.60938 2.443359,-0.65039 z"
       id="path52"
       inkscape:label="11" />
    <path
       style="fill:#ffee00;fill-opacity:1"
       d="m 106.12128,135.90967 c 4.48828,0.0117 8.37891,0.33984 9.87891,1.08984 3,1 14.99951,17 13.99951,18 l -9,-4.99951 c -8.99999,-5.99999 -17.99952,-9.00049 -28.999509,-10.00049 l -7.999512,-0.99902 3,-1.00049 c 2.499998,-1.25 11.640144,-2.10986 19.120601,-2.09033 z"
       id="path50"
       inkscape:label="10" />
    <path
       style="fill:#ffee00;fill-opacity:1"
       d="m 126.9997,136.00047 29.00098,27.99902 c 26.99997,25.99998 28.99999,29.00098 21,26.00098 L 165.9997,186 l -9,-1.99951 -15,-22.00049 c -5.16694,-8.56926 -10.16789,-17.23707 -15,-25.99951 z"
       id="path51"
       inkscape:label="9" />
    <path
       style="fill:#ffee00;fill-opacity:1"
       d="m 136.40546,135.00439 c 1.19239,-0.0859 4.15772,1.2461 7.59522,3.9961 L 153.9997,147 l 33,22.00049 c 7.99999,5.99999 9,5.99903 9,9.99902 l 2.00098,12 1.99951,9 -64.00049,-63.99902 c -0.3125,-0.625 -0.13623,-0.95703 0.40576,-0.9961 z"
       id="path49"
       inkscape:label="8" />
    <path
       style="fill:#ffee00;fill-opacity:1"
       d="M 153.00068,75 153.9997,79.000488 156.00068,90 c 1,6.999993 7.99903,20.99952 12.99902,28.99951 L 183.00068,135 c 12.99999,13.99999 13.99951,17.0005 13.99951,25.00049 -1,7.99999 -2,9 -6,6 l -10.00049,-8.00098 -9,-6.99902 c -5.99999,-8.99999 -16.99902,-30.00001 -18.99902,-39 -3,-7.99999 -4,-19.000004 -3,-21.000002 l 0.99902,-5.000976 1.00049,-6.999024 z"
       id="path48"
       inkscape:label="7" />
    <path
       style="fill:#ffee00;fill-opacity:1"
       d="m 161.00019,67.999512 4.00049,6 c 4,7.999992 6.00001,11.000982 15,17.000976 11.99999,7.999992 20,15.999512 24,19.999512 4.99999,5.99999 4.9995,7.99954 -4.00049,31.99951 -1,2 -2.0005,2.00097 -10.00049,-6.99902 -19.99998,-21.99998 -30,-41.000996 -30,-59.000978 z"
       id="path47"
       inkscape:label="6" />
    <g
       id="g170"
       style="fill:url(#radialGradient171)">
      <path
         style="fill:url(#radialGradient171);fill-opacity:1"
         d="m 239.62568,441.375 c 1.875,-0.125 4.87403,1.12549 10.37402,3.62549 l 8.00098,3.99902 c 4,2 4.99951,3 7.99951,3 l 3,2.00098 -7.99951,9 -12,16.99951 c -5.99999,11.99999 -11,29.99952 -12,40.99951 0,11.99999 -2,19.00001 -6,27 -4,7.99999 -13.00001,20.00098 -18,23.00098 -4,3 -15,7 -15,6 0,-2 2.99951,-5.00098 4.99951,-5.00098 2,0 9.99952,-7.99952 13.99951,-13.99951 11.55931,-16.59602 16.2209,-37.03317 13.00049,-57 -2,-15.99998 -1.99951,-34.0005 1.00049,-43.00049 1,-3.99999 2.99951,-10 4.99951,-12 1,-3 1.75049,-4.49951 3.62549,-4.62451 z"
         id="path82"
         inkscape:label="33" />
      <path
         style="fill:url(#radialGradient171);fill-opacity:1"
         d="m 212.00019,420 4.00049,3 10.99951,7.00049 6,4.99951 -1.99951,4.99951 -5.00098,14.00098 c -2.99999,9.99999 -3,10.99903 -3,21.99902 l 1.00049,21 c 3,16.99998 0.9995,33.00002 -7.00049,48 -4.99999,11.99999 -15.99903,24.00098 -21.99902,26.00098 -3,0 -3.00048,-1.00099 1.99951,-8.00098 4,-7.99999 7,-16.99903 9,-27.99902 1,-10.99999 0.9995,-15.00101 -7.00049,-47.00098 -4.99999,-18.99998 -4.99951,-28.00001 -1.99951,-39 l 12,-24.99902 z"
         id="path80"
         inkscape:label="32" />
      <path
         style="fill:url(#radialGradient171);fill-opacity:1"
         d="m 180.00068,382.00049 3.99902,3.99902 6,8.00098 9,12 c 4,3 6,5.99902 6,6.99902 L 194.00019,415.00049 180.9997,417 c -5.99999,2 -17.99904,9.00001 -36.99902,21 -18.99998,11.99999 -22.00001,14.00049 -36,19.00049 -14.999986,5.99999 -33.000007,7.99902 -39.000001,3.99902 -4.999995,-2 -4.000482,-4 1.999512,-3 10.999989,0 23.999522,-3.99903 34.999509,-12.99902 4,-2 17.00099,-14.00001 29.00098,-27 l 27.99902,-26.00098 c 6,-4.99999 15.00098,-9.99902 17.00098,-9.99902 z"
         id="path77"
         inkscape:label="25" />
      <path
         style="fill:url(#radialGradient171);fill-opacity:1"
         d="m 166.06269,344.51514 c 2.4375,-0.14063 3.1875,0.98438 3.9375,5.48437 2.44063,8.40397 5.1078,16.74087 7.99951,25.00049 l -6.99902,4.99951 c -10.99999,6 -21.00002,15.00002 -42,36 -20.99998,20.99998 -28.00099,27.00098 -38.000978,32.00098 -6.999993,3 -15.999023,5 -15.999023,3 l 1.999512,-2.00098 c 4.999995,-3 14.00049,-9 16.000488,-12 L 102.00068,417 113.00019,382.99951 C 120.00018,368.99953 147.99972,348 162.9997,345 c 1.25,-0.25 2.25049,-0.43799 3.06299,-0.48486 z"
         id="path75"
         inkscape:label="24" />
      <path
         style="fill:url(#radialGradient171);fill-opacity:1"
         d="m 53.069038,228.01611 c 3.697262,-0.0937 7.306644,0.23438 9.931641,0.98438 7.999992,3 19.000014,10.99903 33,21.99902 l 21.999021,15 c 7.99999,4 24.00099,10.00049 35.00098,13.00049 14.99998,3 11.99949,4.99951 -7.00049,4.99951 -24.99997,0 -33.00004,-2.99954 -71.999999,-31.99951 -16.999983,-11.99999 -24.000496,-15.99951 -31.000489,-16.99951 -6.999993,0 -7.999508,-1 -4.999511,-3 2.499997,-2.5 8.906744,-3.82813 15.068847,-3.98438 z"
         id="path67"
         inkscape:label="15" />
      <path
         style="fill:url(#radialGradient171);fill-opacity:1"
         d="m 59.996284,179.92969 c 0.710937,0.10937 2.378909,2.13281 5.003907,6.07031 7.999992,10.99999 20.999525,20.99952 34.999511,25.99951 10.999988,4 29.000498,7.00049 40.000488,7.00049 13.99999,0 20.99952,0.99952 28.99951,4.99951 l 19.00049,12 -3,6 -9,17.00098 -6,12 -6,-11.00098 C 158.0002,246.99952 152.00067,239.99999 141.00068,234 c -8.99999,-4 -17.001,-6.00049 -35.00098,-7.00049 -17.99998,-1 -19.999518,-1.99903 -28.999509,-12.99902 -6.999993,-6.99999 -10.000005,-14.0005 -15,-25.00049 -2.249998,-6.18749 -2.917968,-9.21094 -2.003907,-9.07031 z"
         id="path65"
         inkscape:label="13" />
      <path
         style="fill:url(#radialGradient171);fill-opacity:1"
         d="m 64.931343,174.9375 c 0.896484,0 3.568364,1.6875 8.068359,5.0625 11.999988,7.99999 12.000529,8 52.000488,9 l 34.99951,1.00049 11.00098,3 c 16.99998,5.99999 29.99903,13 33.99902,18 1,3 1.00097,3 -3.99902,9 l -7.00049,9 -1.99951,3 -9,-6 c -11.99999,-7.99999 -18.00051,-10.00098 -34.00049,-11.00098 -19.99998,-1 -37.00001,-4 -45,-6 -10.999988,-3 -20.999519,-9.99952 -28.999511,-19.99951 -8.124992,-9.37499 -11.563475,-14.0625 -10.069336,-14.0625 z"
         id="path53"
         inkscape:label="12" />
      <path
         style="fill:url(#radialGradient171);fill-opacity:1"
         d="m 213.9997,55.999512 4.00049,6 c 12.49464,20.000155 15.77378,44.412038 9,67.000488 l -4.00049,13.00049 -1.99951,12.99902 c -2,7.99999 -4.8e-4,22.0005 4.99951,34.00049 l 2.00098,4.99951 -14.00098,12 -3.99902,2.00098 -2.00098,-6 -1.99951,-6 c -2,-2 -3,-13.00001 -3,-24 0,-17.99998 2.99952,-32.00003 13.99951,-57 4,-10.99999 4.00098,-12.0005 5.00098,-22.00049 0,-11.999988 -2.00049,-22.000497 -7.00049,-31.000488 z"
         id="path43"
         inkscape:label="5" />
      <path
         style="fill:url(#radialGradient171);fill-opacity:1"
         d="m 218.00019,51 3,1.000488 6,6 6,9 c 7.99999,16.999983 10.00049,27.000027 10.00049,54.000002 0,17.99998 -4.9e-4,20.99952 1.99951,28.99951 2,9.99999 4.99952,15.99952 10.99951,22.99951 l 4.00049,5.00098 c -8.41686,4.52039 -17.0989,8.52771 -25.99951,12 -3,-1 -6.00049,-13.00001 -7.00049,-24 0,-9.99999 1.00001,-20.00002 6,-36 3,-8.99999 4.00049,-26.0005 4.00049,-34.00049 -2,-12.999987 -6.00001,-25.000014 -15,-39 z"
         id="path42"
         inkscape:label="4" />
      <path
         style="fill:url(#radialGradient171);fill-opacity:1"
         d="m 265.86103,57.445312 c 0.41992,0.195313 0.88867,6.055189 2.13867,18.555176 V 120 c 0,28.99997 4.9e-4,31.00001 4.00049,45 2,6.99999 2,7 0,9 l -4.00049,1.00049 c -4.99999,0 -11.99951,-11.0005 -16.99951,-25.00049 -2,-6.99999 -1.99951,-9.00001 -1.99951,-21 l -1.00049,-13.99951 6,-11.00098 c 5,-11.999986 8.99951,-26.999524 10.99951,-40.99951 0.375,-3.749996 0.60938,-5.671875 0.86133,-5.554688 z"
         id="path45"
         inkscape:label="3" />
    </g>
    <path
       style="fill:#ffee00;fill-opacity:1"
       d="m 266.26386,41.752441 c 0.43946,-0.04883 1.61085,1.12305 4.73584,4.248047 l 11.00098,12.999024 c 5.99999,9.99999 12.99902,28.000005 12.99902,33 -3.8454,25.477738 -8.51403,50.824878 -13.99951,76.000488 -3,-1 -7.00049,-20.0005 -7.00049,-34.00049 v -27 c 2.20673,-21.663781 -0.52807,-43.54501 -7.99951,-63.999022 0,-0.749999 0,-1.21875 0.26367,-1.248047 z"
       id="path41"
       inkscape:label="2" />
    <path
       style="fill:#ffee00;fill-opacity:1"
       d="m 306.28046,59.519531 c 0.89829,-0.318603 1.71973,11.886762 1.71973,54.480469 l -1.00049,55.00049 c 0,2 -0.99903,1.99951 -9.99902,1.99951 h -9 v -4.99951 L 290.00019,153 c 6.5229,-30.78352 11.86067,-61.806484 16.00049,-93 0.0937,-0.28125 0.18686,-0.44751 0.27978,-0.480469 z"
       id="path46"
       inkscape:label="1" />
  </g>
  <path
     id="path70"
     style="fill:#000000"
     d="M 245.4997 227.18701 C 242.81222 227.24951 240.2497 227.5 237.9997 228 C 226.99972 230 211.9997 239.00002 204.9997 249 C 199.99972 254.99998 194.9997 264.00049 195.9997 265.00049 L 207.9997 259.00049 L 227.00019 250.00049 C 235.00017 248.00049 237.0007 247.99951 252.00068 247.99951 C 268.00064 247.99951 269.0007 248.00049 276.00068 250.00049 C 292.00064 256.00047 298.9997 260.99953 300.9997 268.99951 C 301.9997 272.99951 302.00019 279.00004 299.00019 297 L 297.00068 313.00049 L 297.00068 322.00049 L 293.00019 324 C 286.00021 327 280.9997 331.00049 279.9997 337.00049 C 277.9997 341.00047 277.9997 342.00049 279.9997 346.00049 C 279.9997 348.00049 282.00019 351.99951 284.00019 352.99951 C 287.00019 356.99951 294.00021 360 299.00019 360 L 306.9997 361.99951 L 314.81464 363.8042 L 314.96259 359.75977 C 313.91825 361.69968 311.88161 360.77293 308.00019 358.00049 C 302.00021 352.00049 299.00019 342.99998 302.00019 333 L 303.9997 310.00049 L 306.00068 288 L 306.9997 274.99951 C 306.9997 263.99953 307.00019 263.00047 305.00019 259.00049 C 300.00021 249.00051 282.99968 235.99951 267.9997 229.99951 C 262.74972 228.49951 253.56218 226.99951 245.4997 227.18701 z M 248.37519 232.125 C 253.00019 232 257.50021 233.00049 263.00019 235.00049 L 281.00019 244.00049 L 270.9997 243 C 259.99972 241 252.99968 240.99951 243.9997 241.99951 L 231.00068 244.00049 L 218.00019 247.00049 L 210.9997 249 C 212.9997 246 226.00021 238.99951 233.00019 235.99951 C 239.00017 233.49951 243.75021 232.25 248.37519 232.125 z M 293.16572 330.01025 C 295.07911 329.94989 295.28144 332.37452 296.00019 340.99951 L 294.9997 352.99951 C 290.99971 352.99951 287.9997 350.00048 285.9997 343.00049 C 284.9997 339.00049 287.00019 333.00049 290.00019 331.00049 C 291.40644 330.43799 292.417 330.03387 293.16572 330.01025 z "
     inkscape:label="eyebrow" />
  <path
     style="fill:#000000"
     d="m 243,258 -9,6 c -7,6 -14,10 -20,12 -4,2 -6,3 -6,5 0,2 0,2 4,2 l 11,-4 c 10,-4 11,-4 12,1 l 1,4 c 0,3 5,9 8,10 l 9,1 c 6,0 7,0 11,-3 4,-2 10,-10 11,-13 1,-1 2,-1 5,1 6,3 14,3 15,0 0,-2 -19,-17 -26,-21 -7,-3 -18,-4 -26,-1 z m 9,18 -1,1 c -1,0 1,3 3,3 1,1 2,2 1,3 h 3 c 2,-1 3,-3 0,-3 0,1 -1,1 0,0 l -1,-1 v -2 c -3,0 -3,-3 -1,-3 3,-1 6,0 8,2 v 5 c 2,0 1,1 -1,4 -4,5 -12,5 -17,1 -2,-2 -3,-3 -2,-5 v -4 c 1,0 4,3 4,5 l 1,2 c 2,0 2,0 2,-2 0,-2 -1,-3 -2,-3 l -2,-2 c -2,-2 -2,-2 1,-3 3,-1 5,0 4,2 z"
     id="path4"
     inkscape:label="eye" />
  <g
     id="g115"
     inkscape:label="snowflake">
    <path
       style="fill:#000080"
       d="m 326,15 -3,4 c -2,2 -2,3 -2,14 1,10 1,10 3,10 l 13,-6 c 10,-5 12,-6 13,-5 2,2 0,8 -4,10 -6,2 -21,12 -24,14 -2,3 -2,2 0,14 l 1,13 v 8 l 11,-6 c 12,-6 16,-7 16,-3 0,4 -1,5 -15,13 l -12,8 8,8 c 11,11 11,9 11,39 l 1,25 a 742,742 0 0 0 76,-60 c 1,-1 1,-2 -1,-8 -3,-8 -2,-12 0,-19 8,-16 29,-19 41,-6 6,6 8,14 5,25 -3,8 -13,16 -22,16 -4,0 -5,0 -6,2 l -4,28 -2,12 c -1,2 -3,12 -3,25 l -3,14 c -1,9 -1,15 1,16 2,0 15,-6 28,-14 14,-9 17,-10 19,-8 l 10,4 c 7,2 9,2 11,1 2,-1 2,0 0,-18 0,-6 2,-14 5,-16 4,-3 4,-1 4,12 0,13 1,17 4,17 2,0 6,-2 15,-8 l 12,-7 3,-3 1,-18 c 0,-13 0,-15 2,-16 l 3,-2 c 2,0 2,1 2,8 0,9 1,20 3,21 1,1 15,-6 20,-11 4,-3 4,-2 -4,-14 A 290,290 0 0 0 347,17 l -11,-2 z"
       id="path44" />
    <path
       style="fill:#000080"
       d="m 563,176 -11,5 v 4 l 18,11 c 3,2 4,3 4,5 0,2 -1,3 -3,3 -4,0 -13,-4 -20,-8 -10,-7 -10,-7 -22,-1 l -14,8 -6,3 2,2 8,6 c 9,5 14,9 14,11 0,3 -5,3 -10,0 l -13,-7 -11,-5 c -1,0 -3,3 -3,7 l -2,11 c -1,6 -2,8 -5,9 a 1728,1728 0 0 1 -42,26 976,976 0 0 1 78,33 l 14,5 5,-6 c 9,-10 19,-13 30,-8 8,5 13,12 14,21 0,6 0,7 -3,12 -6,12 -20,18 -30,14 -4,-2 -10,-7 -14,-13 l -3,-3 -4,2 -6,2 -7,3 a 783,783 0 0 1 -68,27 c -6,3 -6,5 -2,7 l 19,11 12,7 9,6 2,7 a 534,534 0 0 1 6,18 l 15,-7 c 12,-7 13,-7 16,-6 l 3,3 -21,14 -5,3 7,4 c 10,7 23,14 25,14 l 8,-3 14,-8 c 8,-4 11,-4 13,-1 1,2 0,2 -6,6 -9,4 -18,10 -19,12 l 25,14 c 1,0 15,-26 19,-36 a 298,298 0 0 0 -9,-232 c -5,-13 -8,-17 -10,-17 z"
       id="path115" />
    <path
       style="fill:#000080"
       d="m 421,138 -19,33 a 342,342 0 0 0 -20,39 c 1,1 5,2 7,0 1,-2 5,-1 6,1 0,3 -1,4 -6,5 -7,1 -14,5 -16,7 -2,1 -6,8 -9,15 l -7,12 3,4 7,4 4,2 6,-4 c 9,-6 35,-27 37,-30 2,-2 2,-4 2,-9 l 2,-17 a 406,406 0 0 0 3,-62 z"
       id="path114" />
    <path
       style="fill:#000080"
       d="m 408,134 -11,9 c -3,1 -5,3 -5,4 l -4,4 -20,15 -10,7 c -6,4 -17,15 -17,17 l -3,28 c -2,5 -2,22 -1,24 l 7,2 5,2 3,-3 14,-22 c 2,-4 2,-4 1,-8 -2,-5 -3,-20 -1,-21 0,0 2,1 2,3 l 5,9 c 1,0 4,-3 6,-7 a 241,241 0 0 1 15,-24 l 7,-12 5,-10 6,-11 c 4,-6 5,-9 3,-10 z"
       id="path113" />
    <path
       style="fill:#000080"
       d="m 317,115 v 125 h 14 v -17 l 1,-57 1,-39 -5,-5 -8,-7 -3,-2 z"
       id="path112" />
    <path
       style="fill:#000080"
       d="m 435,82 c -8,3 -12,8 -12,18 0,4 2,10 3,10 l 5,-3 c 6,-5 9,-4 7,2 -3,5 -2,7 1,7 9,2 20,-8 19,-16 v -4 c 0,-3 -5,-10 -9,-12 -5,-2 -11,-3 -14,-2 z"
       id="path2" />
    <path
       style="fill:#000080"
       d="m 460,212 a 944,944 0 0 0 -85,55 l 5,9 6,9 2,2 20,-9 a 517,517 0 0 0 54,-30 l 12,-6 c 11,-6 13,-8 14,-14 3,-8 2,-14 0,-15 -3,-2 -15,-5 -19,-5 l -10,4 z"
       id="path3" />
    <path
       style="fill:#000080"
       d="m 340,382 -5,1 v 6 l 1,13 2,16 c 2,16 2,19 6,22 a 666,666 0 0 0 71,53 c 1,0 0,-4 -2,-7 l -8,-13 a 153,153 0 0 0 -13,-22 l -17,-29 c -1,-2 -3,0 -6,5 -2,6 -4,5 -5,-2 0,-4 0,-7 2,-10 3,-6 4,-5 -9,-26 -7,-10 -7,-10 -17,-7 z"
       id="path63" />
    <path
       style="fill:#000080"
       d="m 362,370 -4,6 15,26 c 1,2 5,4 8,4 12,4 15,5 15,7 0,3 -3,3 -9,2 l -6,-1 a 880,880 0 0 1 37,69 c 2,4 6,7 7,6 l -1,-16 a 742,742 0 0 1 -6,-41 272,272 0 0 0 -3,-28 c -1,-4 -1,-5 -3,-7 l -4,-2 -3,-3 -5,-5 -8,-5 c -6,-6 -22,-17 -24,-17 l -6,4 z"
       id="path62" />
    <path
       style="fill:#000080"
       d="m 384,340 -5,8 -5,9 c -2,3 -2,3 0,5 a 512,512 0 0 0 76,49 c 13,9 17,9 31,5 l 7,-2 -1,-5 -2,-11 -2,-7 -10,-6 a 207,207 0 0 1 -26,-14 l -21,-12 c -16,-10 -36,-20 -39,-20 z"
       id="path61" />
    <path
       style="fill:#000080"
       d="m 337,322 c -6,10 -6,10 -4,13 3,5 16,17 18,17 l 6,-5 c 4,-5 11,-17 11,-20 l -3,-5 c -3,-2 -4,-3 -7,-3 l -9,-1 c -8,-3 -8,-3 -12,4 z"
       id="path60" />
    <path
       style="fill:#000080"
       d="m 391,316 -3,8 -2,7 2,2 22,10 c 25,11 25,10 28,10 a 1073,1073 0 0 0 84,-36 l -43,-1 h -41 v 2 l 3,6 c 4,4 4,7 0,7 -2,0 -4,-2 -10,-8 l -8,-8 h -15 z"
       id="path59" />
    <path
       style="fill:#000080"
       d="m 551,299 c -5,4 -5,7 0,8 6,3 7,7 1,8 -5,1 -7,3 -5,7 3,7 14,11 22,7 12,-6 15,-20 4,-30 -2,-2 -3,-3 -10,-3 -9,0 -9,0 -12,3 z"
       id="path57" />
    <path
       style="fill:#000080"
       d="m 342,281 -8,10 -2,4 4,7 6,7 10,-2 c 13,-2 15,-3 15,-6 0,-8 -12,-27 -17,-27 z"
       id="path56" />
    <path
       style="fill:#000080"
       d="m 428,275 -11,5 -16,7 -14,6 v 6 c 2,10 2,10 18,10 17,0 20,-1 28,-9 5,-5 9,-6 11,-4 l -3,5 c -3,4 -4,6 -1,6 2,2 82,1 83,0 0,-1 -14,-8 -45,-20 a 436,436 0 0 1 -33,-12 l -8,-3 z"
       id="path55" />
    <path
       d="m422 406 2 10 1 11 1 7 1 6 1 9 2 13 2 12 1 15 2 9 8 4c13 4 20 12 21 23s-7 23-16 26c-6 2-16 1-21-2-11-6-15-20-9-32 2-6 1-8-7-14l-9-7-9-7a576 576 0 0 1-42-33c-4-3-8-5-10-4-1 2-2 30 0 40 1 5 1 6-1 9-2 4-10 12-16 16l-4 3 8 6c18 9 22 12 22 16l-1 4c-2 0-8-3-23-12-2-1-4-2-5-1-2 1-1 36 0 37l13 8c13 7 16 9 16 13 0 2 0 3-2 2l-15-6-13-6 1 27c1 2 2 2 11 2a289 289 0 0 0 237-142c0-3-4-6-15-12l-7-4-1 2-2 15c0 12-1 13-5 11-2-1-2-2-2-15-1-22-1-20-7-23a210 210 0 0 1-20-12c-6-2-6-2-6 12s-1 16-6 14l-2-1v-32l-5 1-9 2-8 2c-6 1-4 2-21-8a341 341 0 0 0-30-16l-1 2z"
       id="path5"
       style="fill:#000080" />
    <path
       d="M438 511c-2 2-2 2-1 5v6c-2 2-5 1-6-3-1-5-6-5-8 0-6 13 6 27 20 25 6-2 12-7 13-13s1-10-2-15-12-8-16-5z"
       id="path6"
       style="fill:#000080" />
    <path
       style="fill:#000080"
       d="M 314.81507,363.80348 320,365 c 9,0 10,0 12,-2 l 3,-4 -3,-10 -4,-10 c 0,-3 -2,-4 -7,-3 l -5,1 v 12 c 0,5.79166 -0.19848,9.20154 -1.03757,10.76021"
       id="path64" />
    <path
       style="fill:#000080"
       d="m 317,299 -1,15 c 0,15 0,15 7,14 5,0 8,-4 10,-10 2,-5 2,-5 -1,-11 l -4,-7 c -3,-1 -10,-2 -11,-1 z"
       id="path58" />
    <path
       style="fill:#000080"
       d="m 316,274 v 15 h 5 l 5,-1 3,-6 c 4,-9 6,-17 5,-19 l -2,-1 -15,-3 z"
       id="path54" />
    <path
       style="fill:#000080"
       d="m 315.00068,417 0.99902,9 -0.99902,25.00049 0.99902,18.99902 1.00049,20.00098 1.00049,18.99902 6.99902,-4.99951 6,-6 v -34.00049 c 1,-41.99996 1.00098,-37.00002 -0.99902,-57 -2,-23.99997 -1.00098,-21.99902 -8.00098,-21.99902 -6.99999,1 -6.99902,-1e-5 -6.99902,-6"
       id="path109" />
  </g>
</svg>
